<svg width="684" height="819" viewBox="0 0 684 819" fill="none" xmlns="http://www.w3.org/2000/svg">
    <path d="M16.58 150.148C112.73 87.778 278.06 21.858 327.58 2.69804C336.871 -0.895896 347.167 -0.899456 356.46 2.68804C405.94 21.848 571.27 87.768 667.46 150.138C672.486 153.314 676.635 157.702 679.525 162.898C682.414 168.094 683.953 173.932 684 179.878V508.238C684 508.238 681.51 571.249 617 647.584V312.742C625.302 316.852 632.288 320.316 637.584 322.943C641.195 324.735 644.021 326.139 645.944 327.094L648.836 328.532L648.871 328.549L648.879 328.553C648.881 328.554 648.882 328.555 657.79 310.648L648.882 328.555C658.772 333.474 670.777 329.445 675.697 319.556C680.616 309.666 676.587 297.661 666.698 292.741L657.79 310.648C666.698 292.741 666.697 292.741 666.695 292.74L666.685 292.735L663.742 291.272C661.814 290.314 658.981 288.907 655.363 287.112C648.126 283.521 637.745 278.375 625.163 272.153C603.886 261.631 576.31 248.027 547 233.658V125.138C547 114.092 538.046 105.138 527 105.138C515.954 105.138 507 114.092 507 125.138V214.105C444.427 183.616 382.043 153.739 363.291 146.605C361.895 146.074 360.476 145.709 359.056 145.502C346.888 141.685 333.755 142.051 321.773 146.6L321.759 146.605C300.622 154.646 224.049 191.583 154.255 225.722C119.023 242.955 85.0494 259.709 59.8872 272.153C47.3051 278.375 36.9239 283.521 29.6871 287.112C26.0687 288.907 23.2363 290.314 21.3078 291.272C20.3436 291.751 19.6054 292.118 19.1079 292.366L18.3554 292.74C18.3533 292.741 18.3522 292.741 27.26 310.648L18.3522 292.741C8.46259 297.661 4.43365 309.666 9.35331 319.556C14.273 329.445 26.2783 333.474 36.1679 328.555L27.26 310.648C36.1679 328.555 36.1687 328.554 36.1706 328.553L36.9152 328.183C37.4099 327.937 38.1452 327.572 39.1064 327.094C41.0289 326.139 43.8548 324.735 47.4664 322.943C52.5377 320.427 59.1577 317.145 67 313.262V647.584C2.48994 571.249 0 508.238 0 508.238V179.878C0.0526662 173.93 1.59842 168.091 4.49538 162.897C7.39233 157.702 11.5477 153.318 16.58 150.148Z" fill="#017BF6"/>
    <path d="M107 688.721C130.671 710.076 159.573 731.762 194.86 752.818V447.368C194.86 427.056 206.172 408.801 223.703 398.938L223.709 398.934C255.889 380.842 298.457 363.475 320.165 354.998L320.18 354.992L320.194 354.987C334.22 349.535 349.78 349.535 363.806 354.987L363.82 354.992L363.835 354.998C385.542 363.474 428.106 380.84 460.286 398.931C477.832 408.788 489.14 427.051 489.14 447.368V752.818C524.427 731.762 553.329 710.076 577 688.721V293.418C577 293.273 577.002 293.128 577.005 292.984C557.552 283.394 535.639 272.62 513.22 261.654C445.054 228.312 373.905 194.038 351.592 184.986C350.398 184.77 349.208 184.442 348.033 183.996C344.148 182.522 339.857 182.521 335.972 183.995C317.033 191.202 242.814 226.934 171.83 261.654C149.008 272.817 126.711 283.781 107 293.499V688.721Z" fill="#017BF6"/>
    <path d="M449.14 774.937V447.368C449.14 442.245 446.288 436.948 440.694 433.805L440.689 433.802C411.158 417.199 370.879 400.691 349.304 392.265C344.606 390.442 339.396 390.442 334.698 392.265C313.124 400.689 272.848 417.196 243.317 433.798L243.312 433.802C237.706 436.958 234.86 442.262 234.86 447.368V774.937C262.483 789.098 293.352 802.795 327.85 815.708C336.977 819.108 347.023 819.108 356.15 815.708C390.648 802.795 421.517 789.098 449.14 774.937Z" fill="#017BF6"/>
</svg>
